<?xml version="1.0" standalone="no"?>
<!DOCTYPE svg PUBLIC "-//W3C//DTD SVG 20010904//EN"
 "http://www.w3.org/TR/2001/REC-SVG-20010904/DTD/svg10.dtd">
<svg version="1.0" xmlns="http://www.w3.org/2000/svg"
 width="1254.000000pt" height="1254.000000pt" viewBox="0 0 1254.000000 1254.000000"
 preserveAspectRatio="xMidYMid meet">
<metadata>
Created by potrace 1.11, written by Peter Selinger 2001-2013
</metadata>
<g transform="translate(0.000000,1254.000000) scale(0.100000,-0.100000)"
fill="#000000" stroke="none">
<path d="M8437 12164 c-4 -4 -7 -187 -7 -406 0 -269 -3 -398 -10 -398 -6 0
-151 38 -323 84 -172 46 -321 86 -331 88 -16 3 -23 -12 -47 -101 -16 -58 -27
-107 -25 -109 2 -2 165 -46 362 -99 198 -52 362 -98 367 -102 4 -4 6 -250 5
-548 l-3 -540 -255 69 c-140 37 -321 86 -401 107 l-146 39 -30 -109 c-17 -60
-28 -109 -26 -109 5 0 815 -217 846 -226 16 -5 17 -34 17 -415 l0 -409 115 0
115 0 2 378 3 379 565 -152 565 -151 3 -382 2 -382 115 0 115 0 0 351 c0 329
1 350 18 345 9 -3 136 -37 282 -76 146 -39 271 -72 278 -75 9 -3 12 23 12 113
l0 117 -118 31 c-64 18 -197 53 -294 79 l-178 48 0 543 c0 299 3 544 6 544 4
0 133 -34 288 -75 155 -41 285 -75 289 -75 4 0 7 51 7 114 l0 114 -72 19 c-40
11 -173 46 -295 79 l-223 59 0 468 0 467 -115 0 -115 0 0 -435 c0 -239 -2
-435 -5 -435 -2 0 -246 65 -542 144 -296 80 -550 148 -565 151 l-28 7 -2 437
-3 436 -106 3 c-58 1 -108 -1 -112 -4z m806 -1259 l557 -149 0 -543 c0 -372
-3 -543 -10 -543 -9 0 -1055 278 -1112 296 -17 5 -18 40 -18 551 0 432 3 544
13 541 6 -3 263 -72 570 -153z"/>
<path d="M1680 5780 l0 -4670 1075 0 1075 0 0 430 c0 237 2 430 4 430 3 0 60
-16 128 -35 349 -100 701 -145 1128 -145 478 0 841 52 1255 181 221 69 614
236 598 254 -4 4 -3 5 3 2 15 -9 116 47 107 58 -5 4 -3 5 4 1 15 -8 76 28 65
39 -4 5 -1 5 5 1 16 -9 56 17 45 29 -4 5 -1 5 5 1 16 -9 184 104 176 119 -4 5
-3 7 2 3 11 -11 47 11 39 24 -4 6 -3 8 3 5 35 -22 508 451 486 486 -3 6 -1 7
5 3 13 -8 35 28 24 39 -4 5 -1 5 6 1 6 -4 13 -2 13 3 1 6 2 15 3 20 0 5 5 13
10 18 5 5 6 3 2 -4 -4 -7 -5 -13 -3 -13 12 0 77 112 71 122 -4 6 -3 8 3 5 12
-8 106 159 98 173 -3 6 -2 10 3 10 12 0 61 116 95 226 100 319 95 724 -13
1056 -111 338 -402 737 -730 1001 -213 171 -574 378 -835 477 l-29 11 72 33
c39 18 69 36 65 40 -4 4 1 4 11 0 15 -6 17 -4 11 6 -5 8 -4 11 3 6 14 -9 103
35 95 47 -3 6 -1 7 5 3 14 -9 115 48 104 59 -4 4 -2 5 5 1 15 -8 106 47 96 59
-5 4 -3 5 4 1 10 -6 153 79 153 91 0 2 -6 1 -12 -3 -7 -4 -9 -3 -5 1 4 5 14
10 22 11 8 1 40 22 72 47 63 49 119 98 93 82 -13 -9 -13 -8 -1 7 7 10 17 15
22 12 5 -3 55 41 112 97 56 56 89 92 72 78 l-30 -24 24 28 c14 15 29 27 35 28
24 1 219 255 210 272 -4 7 -3 9 1 4 11 -9 46 43 38 56 -3 6 -2 7 4 4 12 -8 55
67 45 78 -4 5 -2 5 4 2 11 -6 72 108 67 125 -2 4 1 8 6 8 25 0 114 268 141
425 104 609 -84 1157 -564 1654 -226 233 -455 397 -776 557 -406 201 -789 317
-1270 386 -155 22 -160 22 -2007 25 l-1853 4 0 -4671z m3770 3560 c268 -28
523 -116 737 -255 101 -65 258 -219 318 -310 62 -95 103 -186 126 -282 30
-124 23 -312 -14 -428 -31 -95 -95 -209 -166 -299 -260 -327 -761 -525 -1271
-502 -264 11 -480 65 -705 175 -149 73 -255 150 -365 268 -193 205 -275 432
-249 686 38 379 363 715 840 871 232 76 494 102 749 76z m2250 -2414 c0 -2 -8
-10 -17 -17 -16 -13 -17 -12 -4 4 13 16 21 21 21 13z m-130 -139 c0 -1 -24
-25 -52 -52 l-53 -50 50 53 c46 48 55 57 55 49z m-1994 -1667 c208 -36 458
-134 627 -248 194 -130 352 -334 417 -537 31 -99 39 -281 16 -396 -20 -101
-92 -254 -165 -350 -210 -276 -587 -471 -1006 -519 -740 -84 -1443 286 -1586
835 -28 109 -29 289 0 396 54 208 228 439 433 576 212 140 500 239 773 263
127 12 360 2 491 -20z m2174 -2293 c0 -2 -10 -12 -22 -23 l-23 -19 19 23 c18
21 26 27 26 19z m-150 -150 c0 -2 -12 -14 -27 -28 l-28 -24 24 28 c23 25 31
32 31 24z"/>
</g>
</svg>
